<mxfile host="app.diagrams.net" modified="2023-03-28T19:48:18.231Z" agent="Mozilla/5.0 (Windows NT 10.0; Win64; x64) AppleWebKit/537.36 (KHTML, like Gecko) Chrome/111.0.0.0 Safari/537.36" etag="3IkC7_dK-tepLHW5DaMO" version="21.1.1" type="device">
  <diagram name="Страница 1" id="9qWQ5qtmgVc2FPORYo0-">
    <mxGraphModel dx="1290" dy="549" grid="1" gridSize="10" guides="1" tooltips="1" connect="1" arrows="1" fold="1" page="1" pageScale="1" pageWidth="827" pageHeight="1169" math="0" shadow="0">
      <root>
        <mxCell id="0" />
        <mxCell id="1" parent="0" />
        <mxCell id="QQi6fX8nJaEaghV8GVcK-5" value="" style="edgeStyle=orthogonalEdgeStyle;rounded=0;orthogonalLoop=1;jettySize=auto;html=1;" edge="1" parent="1" source="QQi6fX8nJaEaghV8GVcK-2" target="QQi6fX8nJaEaghV8GVcK-3">
          <mxGeometry relative="1" as="geometry" />
        </mxCell>
        <mxCell id="QQi6fX8nJaEaghV8GVcK-2" value="Начало" style="ellipse;whiteSpace=wrap;html=1;" vertex="1" parent="1">
          <mxGeometry x="220" y="20" width="120" height="80" as="geometry" />
        </mxCell>
        <mxCell id="QQi6fX8nJaEaghV8GVcK-7" value="" style="edgeStyle=orthogonalEdgeStyle;rounded=0;orthogonalLoop=1;jettySize=auto;html=1;" edge="1" parent="1" source="QQi6fX8nJaEaghV8GVcK-3">
          <mxGeometry relative="1" as="geometry">
            <mxPoint x="280" y="240" as="targetPoint" />
          </mxGeometry>
        </mxCell>
        <mxCell id="QQi6fX8nJaEaghV8GVcK-3" value="ввод&amp;nbsp;" style="shape=parallelogram;perimeter=parallelogramPerimeter;whiteSpace=wrap;html=1;fixedSize=1;" vertex="1" parent="1">
          <mxGeometry x="220" y="140" width="120" height="60" as="geometry" />
        </mxCell>
        <mxCell id="QQi6fX8nJaEaghV8GVcK-10" value="" style="edgeStyle=orthogonalEdgeStyle;rounded=0;orthogonalLoop=1;jettySize=auto;html=1;" edge="1" parent="1" source="QQi6fX8nJaEaghV8GVcK-8" target="QQi6fX8nJaEaghV8GVcK-9">
          <mxGeometry relative="1" as="geometry" />
        </mxCell>
        <mxCell id="QQi6fX8nJaEaghV8GVcK-12" style="edgeStyle=orthogonalEdgeStyle;rounded=0;orthogonalLoop=1;jettySize=auto;html=1;" edge="1" parent="1" source="QQi6fX8nJaEaghV8GVcK-8" target="QQi6fX8nJaEaghV8GVcK-11">
          <mxGeometry relative="1" as="geometry">
            <mxPoint x="280" y="370" as="targetPoint" />
          </mxGeometry>
        </mxCell>
        <mxCell id="QQi6fX8nJaEaghV8GVcK-8" value="i=arrayLength" style="rhombus;whiteSpace=wrap;html=1;" vertex="1" parent="1">
          <mxGeometry x="200" y="250" width="160" height="80" as="geometry" />
        </mxCell>
        <mxCell id="QQi6fX8nJaEaghV8GVcK-9" value="i=0&lt;br&gt;N=0" style="rounded=0;whiteSpace=wrap;html=1;" vertex="1" parent="1">
          <mxGeometry x="400" y="260" width="80" height="60" as="geometry" />
        </mxCell>
        <mxCell id="QQi6fX8nJaEaghV8GVcK-13" style="edgeStyle=orthogonalEdgeStyle;rounded=0;orthogonalLoop=1;jettySize=auto;html=1;entryX=0;entryY=0.5;entryDx=0;entryDy=0;" edge="1" parent="1" source="QQi6fX8nJaEaghV8GVcK-11" target="QQi6fX8nJaEaghV8GVcK-8">
          <mxGeometry relative="1" as="geometry">
            <Array as="points">
              <mxPoint x="180" y="410" />
              <mxPoint x="180" y="290" />
            </Array>
          </mxGeometry>
        </mxCell>
        <mxCell id="QQi6fX8nJaEaghV8GVcK-11" value="i=i+1" style="rounded=0;whiteSpace=wrap;html=1;" vertex="1" parent="1">
          <mxGeometry x="220" y="380" width="120" height="60" as="geometry" />
        </mxCell>
        <mxCell id="QQi6fX8nJaEaghV8GVcK-17" style="edgeStyle=orthogonalEdgeStyle;rounded=0;orthogonalLoop=1;jettySize=auto;html=1;" edge="1" parent="1" source="QQi6fX8nJaEaghV8GVcK-18" target="QQi6fX8nJaEaghV8GVcK-16">
          <mxGeometry relative="1" as="geometry" />
        </mxCell>
        <mxCell id="QQi6fX8nJaEaghV8GVcK-47" style="edgeStyle=orthogonalEdgeStyle;rounded=0;orthogonalLoop=1;jettySize=auto;html=1;entryX=1;entryY=0.75;entryDx=0;entryDy=0;" edge="1" parent="1" source="QQi6fX8nJaEaghV8GVcK-14" target="QQi6fX8nJaEaghV8GVcK-46">
          <mxGeometry relative="1" as="geometry">
            <Array as="points">
              <mxPoint x="770" y="390" />
              <mxPoint x="770" y="695" />
              <mxPoint x="590" y="695" />
              <mxPoint x="590" y="715" />
            </Array>
          </mxGeometry>
        </mxCell>
        <mxCell id="QQi6fX8nJaEaghV8GVcK-14" value="i+arrayLength" style="rhombus;whiteSpace=wrap;html=1;" vertex="1" parent="1">
          <mxGeometry x="630" y="350" width="130" height="80" as="geometry" />
        </mxCell>
        <mxCell id="QQi6fX8nJaEaghV8GVcK-15" value="" style="edgeStyle=none;orthogonalLoop=1;jettySize=auto;html=1;rounded=0;entryX=0.5;entryY=0;entryDx=0;entryDy=0;exitX=1;exitY=0.5;exitDx=0;exitDy=0;" edge="1" parent="1" source="QQi6fX8nJaEaghV8GVcK-9" target="QQi6fX8nJaEaghV8GVcK-14">
          <mxGeometry width="100" relative="1" as="geometry">
            <mxPoint x="450" y="290" as="sourcePoint" />
            <mxPoint x="550" y="290" as="targetPoint" />
            <Array as="points">
              <mxPoint x="550" y="320" />
            </Array>
          </mxGeometry>
        </mxCell>
        <mxCell id="QQi6fX8nJaEaghV8GVcK-21" style="edgeStyle=orthogonalEdgeStyle;rounded=0;orthogonalLoop=1;jettySize=auto;html=1;" edge="1" parent="1" source="QQi6fX8nJaEaghV8GVcK-16" target="QQi6fX8nJaEaghV8GVcK-20">
          <mxGeometry relative="1" as="geometry" />
        </mxCell>
        <mxCell id="QQi6fX8nJaEaghV8GVcK-30" style="edgeStyle=orthogonalEdgeStyle;rounded=0;orthogonalLoop=1;jettySize=auto;html=1;" edge="1" parent="1" source="QQi6fX8nJaEaghV8GVcK-16">
          <mxGeometry relative="1" as="geometry">
            <mxPoint x="360" y="480" as="targetPoint" />
          </mxGeometry>
        </mxCell>
        <mxCell id="QQi6fX8nJaEaghV8GVcK-16" value="k=0" style="rounded=0;whiteSpace=wrap;html=1;" vertex="1" parent="1">
          <mxGeometry x="460" y="450" width="120" height="60" as="geometry" />
        </mxCell>
        <mxCell id="QQi6fX8nJaEaghV8GVcK-19" value="" style="edgeStyle=orthogonalEdgeStyle;rounded=0;orthogonalLoop=1;jettySize=auto;html=1;" edge="1" parent="1" source="QQi6fX8nJaEaghV8GVcK-14" target="QQi6fX8nJaEaghV8GVcK-18">
          <mxGeometry relative="1" as="geometry">
            <mxPoint x="625" y="430" as="sourcePoint" />
            <mxPoint x="500" y="490" as="targetPoint" />
          </mxGeometry>
        </mxCell>
        <mxCell id="QQi6fX8nJaEaghV8GVcK-18" value="true&lt;br&gt;" style="text;html=1;strokeColor=none;fillColor=none;align=center;verticalAlign=middle;whiteSpace=wrap;rounded=0;" vertex="1" parent="1">
          <mxGeometry x="490" y="410" width="60" height="30" as="geometry" />
        </mxCell>
        <mxCell id="QQi6fX8nJaEaghV8GVcK-26" style="edgeStyle=orthogonalEdgeStyle;rounded=0;orthogonalLoop=1;jettySize=auto;html=1;" edge="1" parent="1" source="QQi6fX8nJaEaghV8GVcK-27" target="QQi6fX8nJaEaghV8GVcK-22">
          <mxGeometry relative="1" as="geometry">
            <Array as="points">
              <mxPoint x="570" y="580" />
            </Array>
          </mxGeometry>
        </mxCell>
        <mxCell id="QQi6fX8nJaEaghV8GVcK-20" value="char c in array&lt;br&gt;" style="rhombus;whiteSpace=wrap;html=1;" vertex="1" parent="1">
          <mxGeometry x="630" y="540" width="120" height="80" as="geometry" />
        </mxCell>
        <mxCell id="QQi6fX8nJaEaghV8GVcK-29" style="edgeStyle=orthogonalEdgeStyle;rounded=0;orthogonalLoop=1;jettySize=auto;html=1;entryX=0.083;entryY=1.01;entryDx=0;entryDy=0;entryPerimeter=0;" edge="1" parent="1" source="QQi6fX8nJaEaghV8GVcK-22" target="QQi6fX8nJaEaghV8GVcK-16">
          <mxGeometry relative="1" as="geometry" />
        </mxCell>
        <mxCell id="QQi6fX8nJaEaghV8GVcK-22" value="k=k+1" style="rounded=0;whiteSpace=wrap;html=1;" vertex="1" parent="1">
          <mxGeometry x="414" y="550" width="120" height="60" as="geometry" />
        </mxCell>
        <mxCell id="QQi6fX8nJaEaghV8GVcK-28" value="" style="edgeStyle=orthogonalEdgeStyle;rounded=0;orthogonalLoop=1;jettySize=auto;html=1;" edge="1" parent="1" source="QQi6fX8nJaEaghV8GVcK-20" target="QQi6fX8nJaEaghV8GVcK-27">
          <mxGeometry relative="1" as="geometry">
            <mxPoint x="630" y="580" as="sourcePoint" />
            <mxPoint x="534" y="580" as="targetPoint" />
            <Array as="points">
              <mxPoint x="570" y="580" />
            </Array>
          </mxGeometry>
        </mxCell>
        <mxCell id="QQi6fX8nJaEaghV8GVcK-27" value="True&lt;br&gt;" style="text;html=1;strokeColor=none;fillColor=none;align=center;verticalAlign=middle;whiteSpace=wrap;rounded=0;" vertex="1" parent="1">
          <mxGeometry x="560" y="565" width="60" height="30" as="geometry" />
        </mxCell>
        <mxCell id="QQi6fX8nJaEaghV8GVcK-40" style="edgeStyle=orthogonalEdgeStyle;rounded=0;orthogonalLoop=1;jettySize=auto;html=1;entryX=0;entryY=0.75;entryDx=0;entryDy=0;" edge="1" parent="1" source="QQi6fX8nJaEaghV8GVcK-43" target="QQi6fX8nJaEaghV8GVcK-39">
          <mxGeometry relative="1" as="geometry">
            <Array as="points">
              <mxPoint x="370" y="380" />
            </Array>
          </mxGeometry>
        </mxCell>
        <mxCell id="QQi6fX8nJaEaghV8GVcK-45" style="edgeStyle=orthogonalEdgeStyle;rounded=0;orthogonalLoop=1;jettySize=auto;html=1;entryX=0.5;entryY=1;entryDx=0;entryDy=0;" edge="1" parent="1" source="QQi6fX8nJaEaghV8GVcK-31" target="QQi6fX8nJaEaghV8GVcK-43">
          <mxGeometry relative="1" as="geometry">
            <Array as="points">
              <mxPoint x="300" y="450" />
              <mxPoint x="370" y="450" />
              <mxPoint x="370" y="430" />
            </Array>
          </mxGeometry>
        </mxCell>
        <mxCell id="QQi6fX8nJaEaghV8GVcK-31" value="k&amp;lt;=3" style="rounded=0;whiteSpace=wrap;html=1;" vertex="1" parent="1">
          <mxGeometry x="240" y="460" width="120" height="60" as="geometry" />
        </mxCell>
        <mxCell id="QQi6fX8nJaEaghV8GVcK-34" style="edgeStyle=orthogonalEdgeStyle;rounded=0;orthogonalLoop=1;jettySize=auto;html=1;entryX=0.163;entryY=0.358;entryDx=0;entryDy=0;entryPerimeter=0;exitX=1;exitY=0.25;exitDx=0;exitDy=0;" edge="1" parent="1" source="QQi6fX8nJaEaghV8GVcK-32" target="QQi6fX8nJaEaghV8GVcK-14">
          <mxGeometry relative="1" as="geometry" />
        </mxCell>
        <mxCell id="QQi6fX8nJaEaghV8GVcK-32" value="i=i+1" style="rounded=0;whiteSpace=wrap;html=1;" vertex="1" parent="1">
          <mxGeometry x="500" y="350" width="80" height="50" as="geometry" />
        </mxCell>
        <mxCell id="QQi6fX8nJaEaghV8GVcK-36" value="" style="edgeStyle=orthogonalEdgeStyle;rounded=0;orthogonalLoop=1;jettySize=auto;html=1;entryX=0.5;entryY=1;entryDx=0;entryDy=0;" edge="1" parent="1" source="QQi6fX8nJaEaghV8GVcK-31" target="QQi6fX8nJaEaghV8GVcK-35">
          <mxGeometry relative="1" as="geometry">
            <mxPoint x="300" y="460" as="sourcePoint" />
            <mxPoint x="440" y="415" as="targetPoint" />
            <Array as="points">
              <mxPoint x="400" y="470" />
            </Array>
          </mxGeometry>
        </mxCell>
        <mxCell id="QQi6fX8nJaEaghV8GVcK-38" style="edgeStyle=orthogonalEdgeStyle;rounded=0;orthogonalLoop=1;jettySize=auto;html=1;entryX=0;entryY=1;entryDx=0;entryDy=0;" edge="1" parent="1" source="QQi6fX8nJaEaghV8GVcK-35" target="QQi6fX8nJaEaghV8GVcK-32">
          <mxGeometry relative="1" as="geometry">
            <mxPoint x="450" y="420" as="targetPoint" />
          </mxGeometry>
        </mxCell>
        <mxCell id="QQi6fX8nJaEaghV8GVcK-35" value="false" style="text;html=1;strokeColor=none;fillColor=none;align=center;verticalAlign=middle;whiteSpace=wrap;rounded=0;" vertex="1" parent="1">
          <mxGeometry x="410" y="410" width="60" height="30" as="geometry" />
        </mxCell>
        <mxCell id="QQi6fX8nJaEaghV8GVcK-41" value="" style="edgeStyle=orthogonalEdgeStyle;rounded=0;orthogonalLoop=1;jettySize=auto;html=1;" edge="1" parent="1" source="QQi6fX8nJaEaghV8GVcK-39" target="QQi6fX8nJaEaghV8GVcK-32">
          <mxGeometry relative="1" as="geometry" />
        </mxCell>
        <mxCell id="QQi6fX8nJaEaghV8GVcK-39" value="N = N+1" style="rounded=0;whiteSpace=wrap;html=1;" vertex="1" parent="1">
          <mxGeometry x="380" y="350" width="90" height="40" as="geometry" />
        </mxCell>
        <mxCell id="QQi6fX8nJaEaghV8GVcK-43" value="True&lt;br&gt;" style="text;html=1;strokeColor=none;fillColor=none;align=center;verticalAlign=middle;whiteSpace=wrap;rounded=0;" vertex="1" parent="1">
          <mxGeometry x="340" y="400" width="60" height="30" as="geometry" />
        </mxCell>
        <mxCell id="QQi6fX8nJaEaghV8GVcK-49" style="edgeStyle=orthogonalEdgeStyle;rounded=0;orthogonalLoop=1;jettySize=auto;html=1;" edge="1" parent="1" source="QQi6fX8nJaEaghV8GVcK-46" target="QQi6fX8nJaEaghV8GVcK-48">
          <mxGeometry relative="1" as="geometry" />
        </mxCell>
        <mxCell id="QQi6fX8nJaEaghV8GVcK-46" value="newArray" style="rounded=0;whiteSpace=wrap;html=1;" vertex="1" parent="1">
          <mxGeometry x="440" y="670" width="120" height="60" as="geometry" />
        </mxCell>
        <mxCell id="QQi6fX8nJaEaghV8GVcK-51" style="edgeStyle=orthogonalEdgeStyle;rounded=0;orthogonalLoop=1;jettySize=auto;html=1;entryX=1;entryY=0.5;entryDx=0;entryDy=0;" edge="1" parent="1" source="QQi6fX8nJaEaghV8GVcK-48" target="QQi6fX8nJaEaghV8GVcK-50">
          <mxGeometry relative="1" as="geometry" />
        </mxCell>
        <mxCell id="QQi6fX8nJaEaghV8GVcK-48" value="i=arrayLength" style="rhombus;whiteSpace=wrap;html=1;" vertex="1" parent="1">
          <mxGeometry x="310" y="660" width="80" height="80" as="geometry" />
        </mxCell>
        <mxCell id="QQi6fX8nJaEaghV8GVcK-52" style="edgeStyle=orthogonalEdgeStyle;rounded=0;orthogonalLoop=1;jettySize=auto;html=1;" edge="1" parent="1" source="QQi6fX8nJaEaghV8GVcK-50" target="QQi6fX8nJaEaghV8GVcK-53">
          <mxGeometry relative="1" as="geometry">
            <mxPoint x="190" y="790" as="targetPoint" />
          </mxGeometry>
        </mxCell>
        <mxCell id="QQi6fX8nJaEaghV8GVcK-50" value="array" style="shape=parallelogram;perimeter=parallelogramPerimeter;whiteSpace=wrap;html=1;fixedSize=1;" vertex="1" parent="1">
          <mxGeometry x="130" y="670" width="120" height="60" as="geometry" />
        </mxCell>
        <mxCell id="QQi6fX8nJaEaghV8GVcK-53" value="Конец" style="ellipse;whiteSpace=wrap;html=1;" vertex="1" parent="1">
          <mxGeometry x="130" y="750" width="120" height="80" as="geometry" />
        </mxCell>
      </root>
    </mxGraphModel>
  </diagram>
</mxfile>
